HIERARCHY
ROOT Hips
{
	OFFSET 0.000000 71.427986 0.000000
	CHANNELS 6 Xposition Yposition Zposition Xrotation Yrotation Zrotation
	JOINT Pelvis
	{
		OFFSET 0.000000 0.000000 0.000000
		CHANNELS 3 Xrotation Yrotation Zrotation
		JOINT LeftUpLeg
		{
			OFFSET 6.797100 -2.508499 -1.318700
			CHANNELS 3 Xrotation Yrotation Zrotation
			JOINT LeftLeg
			{
				OFFSET 0.069008 -29.241863 0.690200
				CHANNELS 3 Xrotation Yrotation Zrotation
				JOINT LeftFoot
				{
					OFFSET -0.069008 -29.568123 -0.266800
					CHANNELS 3 Xrotation Yrotation Zrotation
					JOINT LeftToeBase
					{
						OFFSET 3.145500 -8.631000 16.059900
						CHANNELS 3 Xrotation Yrotation Zrotation
						End Site
						{
							OFFSET 0.000000 18.501587 0.000000
						}
					}
				}
			}
			JOINT Left_ShortSleeve
			{
				OFFSET 0.265923 -10.480953 1.153800
				CHANNELS 3 Xrotation Yrotation Zrotation
				End Site
				{
					OFFSET 1.725763 19.823879 0.000000
				}
			}
		}
		JOINT RightUpLeg
		{
			OFFSET -6.797100 -2.508499 -1.318700
			CHANNELS 3 Xrotation Yrotation Zrotation
			JOINT RightLeg
			{
				OFFSET -0.082453 -29.241932 0.688000
				CHANNELS 3 Xrotation Yrotation Zrotation
				JOINT RightFoot
				{
					OFFSET 0.082453 -29.568058 -0.264600
					CHANNELS 3 Xrotation Yrotation Zrotation
					JOINT RightToeBase
					{
						OFFSET -3.115300 -8.682800 16.113400
						CHANNELS 3 Xrotation Yrotation Zrotation
						End Site
						{
							OFFSET 0.000000 18.567114 0.000000
						}
					}
				}
			}
			JOINT Right_ShortSleeve
			{
				OFFSET -0.265923 -10.480953 1.153800
				CHANNELS 3 Xrotation Yrotation Zrotation
				End Site
				{
					OFFSET -1.725766 19.823910 0.000000
				}
			}
		}
	}
	JOINT Spine
	{
		OFFSET 0.000000 13.368103 0.470500
		CHANNELS 3 Xrotation Yrotation Zrotation
		JOINT Spine1
		{
			OFFSET 0.147000 13.837402 0.538800
			CHANNELS 3 Xrotation Yrotation Zrotation
			JOINT Spine2
			{
				OFFSET 0.168000 16.242897 -1.435500
				CHANNELS 3 Xrotation Yrotation Zrotation
				JOINT Neck
				{
					OFFSET 0.217200 18.631500 -1.679100
					CHANNELS 3 Xrotation Yrotation Zrotation
					JOINT Head
					{
						OFFSET 0.000000 6.599396 1.385900
						CHANNELS 3 Xrotation Yrotation Zrotation
						JOINT Hat
						{
							OFFSET -0.532200 27.220596 -10.096100
							CHANNELS 3 Xrotation Yrotation Zrotation
							End Site
							{
								OFFSET 0.000000 22.029861 0.000000
							}
						}
						JOINT HairD
						{
							OFFSET -10.777400 17.437393 -1.325900
							CHANNELS 3 Xrotation Yrotation Zrotation
							JOINT HairD1
							{
								OFFSET -3.290299 -11.051193 1.062200
								CHANNELS 3 Xrotation Yrotation Zrotation
								End Site
								{
									OFFSET 0.000000 11.579437 0.000000
								}
							}
						}
						JOINT HairB
						{
							OFFSET -10.777400 17.437393 1.467900
							CHANNELS 3 Xrotation Yrotation Zrotation
							JOINT HairB1
							{
								OFFSET -1.561200 -12.956299 3.590200
								CHANNELS 3 Xrotation Yrotation Zrotation
								End Site
								{
									OFFSET 0.000000 13.534866 0.000000
								}
							}
						}
						JOINT HairA
						{
							OFFSET 9.713100 17.437393 1.467900
							CHANNELS 3 Xrotation Yrotation Zrotation
							JOINT HairA1
							{
								OFFSET 1.561200 -12.956299 3.590200
								CHANNELS 3 Xrotation Yrotation Zrotation
								End Site
								{
									OFFSET 0.000000 13.534866 0.000000
								}
							}
						}
						JOINT HairC
						{
							OFFSET 9.713100 17.437393 -1.325900
							CHANNELS 3 Xrotation Yrotation Zrotation
							JOINT HairC1
							{
								OFFSET 3.290300 -11.051193 1.062200
								CHANNELS 3 Xrotation Yrotation Zrotation
								End Site
								{
									OFFSET 0.000000 11.579437 0.000000
								}
							}
						}
					}
				}
				JOINT LeftShoulder
				{
					OFFSET 5.101800 15.108002 -2.763700
					CHANNELS 3 Xrotation Yrotation Zrotation
					JOINT LeftArm
					{
						OFFSET 9.825497 2.506317 -1.597400
						CHANNELS 3 Xrotation Yrotation Zrotation
						JOINT LeftForeArm
						{
							OFFSET 21.966244 0.000000 0.000000
							CHANNELS 3 Xrotation Yrotation Zrotation
							JOINT LeftHand
							{
								OFFSET 33.879036 0.000000 0.000000
								CHANNELS 3 Xrotation Yrotation Zrotation
								JOINT LeftHandThumb1
								{
									OFFSET 6.715286 -2.359680 3.363841
									CHANNELS 3 Xrotation Yrotation Zrotation
									JOINT LeftHandThumb2
									{
										OFFSET 2.507072 -1.447464 1.447461
										CHANNELS 3 Xrotation Yrotation Zrotation
										JOINT LeftHandThumb3
										{
											OFFSET 2.898338 -1.673355 1.673357
											CHANNELS 3 Xrotation Yrotation Zrotation
											End Site
											{
												OFFSET -0.295959 3.727692 -0.131651
											}
										}
									}
								}
								JOINT LeftHandIndex1
								{
									OFFSET 14.190811 -0.254547 3.840278
									CHANNELS 3 Xrotation Yrotation Zrotation
									JOINT LeftHandIndex2
									{
										OFFSET 3.551727 0.000000 -0.000000
										CHANNELS 3 Xrotation Yrotation Zrotation
										JOINT LeftHandIndex3
										{
											OFFSET 2.894196 0.000000 0.000000
											CHANNELS 3 Xrotation Yrotation Zrotation
											End Site
											{
												OFFSET -1.000603 2.690872 0.366626
											}
										}
									}
								}
								JOINT LeftHandMiddle1
								{
									OFFSET 13.776489 0.000000 0.000000
									CHANNELS 3 Xrotation Yrotation Zrotation
									JOINT LeftHandMiddle2
									{
										OFFSET 3.438232 0.000000 0.000000
										CHANNELS 3 Xrotation Yrotation Zrotation
										JOINT LeftHandMiddle3
										{
											OFFSET 3.691551 0.000000 0.000000
											CHANNELS 3 Xrotation Yrotation Zrotation
											End Site
											{
												OFFSET -1.082298 3.499527 0.457670
											}
										}
									}
								}
								JOINT LeftHandRing1
								{
									OFFSET 13.966164 -0.268127 -3.067488
									CHANNELS 3 Xrotation Yrotation Zrotation
									JOINT LeftHandRing2
									{
										OFFSET 3.162567 0.000000 0.000000
										CHANNELS 3 Xrotation Yrotation Zrotation
										JOINT LeftHandRing3
										{
											OFFSET 3.324348 0.000000 0.000000
											CHANNELS 3 Xrotation Yrotation Zrotation
											End Site
											{
												OFFSET -0.861900 3.184998 0.405154
											}
										}
									}
								}
								JOINT LeftHandPinky1
								{
									OFFSET 13.131393 -0.168503 -5.746925
									CHANNELS 3 Xrotation Yrotation Zrotation
									JOINT LeftHandPinky2
									{
										OFFSET 2.849182 0.000000 0.000000
										CHANNELS 3 Xrotation Yrotation Zrotation
										JOINT LeftHandPinky3
										{
											OFFSET 2.805038 0.000000 0.000000
											CHANNELS 3 Xrotation Yrotation Zrotation
											End Site
											{
												OFFSET -0.882500 2.642609 0.325652
											}
										}
									}
								}
							}
							JOINT Left_Sleeve
							{
								OFFSET 6.592125 -0.646545 0.805568
								CHANNELS 3 Xrotation Yrotation Zrotation
								End Site
								{
									OFFSET -0.000179 20.275787 -0.000000
								}
							}
						}
					}
				}
				JOINT RightShoulder
				{
					OFFSET -5.731700 15.108002 -2.763700
					CHANNELS 3 Xrotation Yrotation Zrotation
					JOINT RightArm
					{
						OFFSET -9.825497 2.506317 -1.597400
						CHANNELS 3 Xrotation Yrotation Zrotation
						JOINT RightForeArm
						{
							OFFSET -21.966242 0.000000 0.000000
							CHANNELS 3 Xrotation Yrotation Zrotation
							JOINT RightHand
							{
								OFFSET -33.879032 0.000000 0.000000
								CHANNELS 3 Xrotation Yrotation Zrotation
								JOINT RightHandThumb1
								{
									OFFSET -6.715286 -2.359680 3.363841
									CHANNELS 3 Xrotation Yrotation Zrotation
									JOINT RightHandThumb2
									{
										OFFSET -2.507072 -1.447464 1.447461
										CHANNELS 3 Xrotation Yrotation Zrotation
										JOINT RightHandThumb3
										{
											OFFSET -2.898338 -1.673355 1.673357
											CHANNELS 3 Xrotation Yrotation Zrotation
											End Site
											{
												OFFSET 0.295959 3.727692 -0.131651
											}
										}
									}
								}
								JOINT RightHandIndex1
								{
									OFFSET -14.190811 -0.254547 3.840278
									CHANNELS 3 Xrotation Yrotation Zrotation
									JOINT RightHandIndex2
									{
										OFFSET -3.551727 0.000000 -0.000000
										CHANNELS 3 Xrotation Yrotation Zrotation
										JOINT RightHandIndex3
										{
											OFFSET -2.894196 0.000000 0.000000
											CHANNELS 3 Xrotation Yrotation Zrotation
											End Site
											{
												OFFSET 1.000603 2.690872 0.366626
											}
										}
									}
								}
								JOINT RightHandMiddle1
								{
									OFFSET -13.776489 0.000000 0.000000
									CHANNELS 3 Xrotation Yrotation Zrotation
									JOINT RightHandMiddle2
									{
										OFFSET -3.438232 0.000000 0.000000
										CHANNELS 3 Xrotation Yrotation Zrotation
										JOINT RightHandMiddle3
										{
											OFFSET -3.691551 0.000000 0.000000
											CHANNELS 3 Xrotation Yrotation Zrotation
											End Site
											{
												OFFSET 1.082298 3.499527 0.457670
											}
										}
									}
								}
								JOINT RightHandRing1
								{
									OFFSET -13.966164 -0.268127 -3.067488
									CHANNELS 3 Xrotation Yrotation Zrotation
									JOINT RightHandRing2
									{
										OFFSET -3.162567 0.000000 0.000000
										CHANNELS 3 Xrotation Yrotation Zrotation
										JOINT RightHandRing3
										{
											OFFSET -3.324348 0.000000 0.000000
											CHANNELS 3 Xrotation Yrotation Zrotation
											End Site
											{
												OFFSET 0.861900 3.184998 0.405154
											}
										}
									}
								}
								JOINT RightHandPinky1
								{
									OFFSET -13.131393 -0.168503 -5.746925
									CHANNELS 3 Xrotation Yrotation Zrotation
									JOINT RightHandPinky2
									{
										OFFSET -2.849182 0.000000 0.000000
										CHANNELS 3 Xrotation Yrotation Zrotation
										JOINT RightHandPinky3
										{
											OFFSET -2.805038 0.000000 0.000000
											CHANNELS 3 Xrotation Yrotation Zrotation
											End Site
											{
												OFFSET 0.882500 2.642609 0.325652
											}
										}
									}
								}
							}
							JOINT Right_Sleeve
							{
								OFFSET -6.592125 -0.646545 0.805568
								CHANNELS 3 Xrotation Yrotation Zrotation
								End Site
								{
									OFFSET 0.000179 20.275787 -0.000000
								}
							}
						}
					}
				}
				JOINT Bind_Right_JacketString
				{
					OFFSET -3.534800 11.969597 7.200700
					CHANNELS 3 Xrotation Yrotation Zrotation
					JOINT Bind_Right_JacketString1
					{
						OFFSET -0.319900 -6.102600 2.794100
						CHANNELS 3 Xrotation Yrotation Zrotation
						End Site
						{
							OFFSET 0.000000 6.719452 0.000000
						}
					}
				}
				JOINT Bind_Left_JacketString
				{
					OFFSET 2.904800 11.969597 7.200700
					CHANNELS 3 Xrotation Yrotation Zrotation
					JOINT Bind_Left_JacketString1
					{
						OFFSET 0.364800 -5.904503 3.186800
						CHANNELS 3 Xrotation Yrotation Zrotation
						End Site
						{
							OFFSET 0.000000 6.719513 0.000000
						}
					}
				}
				JOINT HairE
				{
					OFFSET 5.915200 17.612701 -11.592200
					CHANNELS 3 Xrotation Yrotation Zrotation
					JOINT HairE1
					{
						OFFSET 0.289200 -7.171898 -1.284500
						CHANNELS 3 Xrotation Yrotation Zrotation
						End Site
						{
							OFFSET 0.000000 7.291756 0.000000
						}
					}
				}
				JOINT HairF
				{
					OFFSET -0.864800 17.612701 -11.592200
					CHANNELS 3 Xrotation Yrotation Zrotation
					JOINT HairF1
					{
						OFFSET 0.000000 -14.087097 -2.127501
						CHANNELS 3 Xrotation Yrotation Zrotation
						End Site
						{
							OFFSET 0.000000 14.246841 0.000000
						}
					}
				}
				JOINT HairG
				{
					OFFSET -8.087700 17.612701 -11.592200
					CHANNELS 3 Xrotation Yrotation Zrotation
					JOINT HairG1
					{
						OFFSET -0.293600 -6.081398 -0.910100
						CHANNELS 3 Xrotation Yrotation Zrotation
						End Site
						{
							OFFSET 0.000000 6.156120 0.000000
						}
					}
				}
			}
		}
	}
	JOINT Pouch
	{
		OFFSET 0.000000 4.394501 10.847300
		CHANNELS 3 Xrotation Yrotation Zrotation
		End Site
		{
			OFFSET 0.000000 21.880577 0.000000
		}
	}
	JOINT Bag
	{
		OFFSET -13.229000 4.813004 -0.593300
		CHANNELS 3 Xrotation Yrotation Zrotation
		End Site
		{
			OFFSET 0.000000 21.880577 0.000000
		}
	}
	JOINT OccupyGuyFacialAnim_Joint
	{
		OFFSET 1.000000 -70.206398 -1.655000
		CHANNELS 3 Xrotation Yrotation Zrotation
		End Site
		{
			OFFSET 0.000000 21.880577 0.000000
		}
	}
}
MOTION
Frames: 4
Frame Time: 0.033333
0.538667 51.345108 0.219332 11.669181 -49.402516 11.182983 0.000000 0.000002 -0.000000 -78.361777 15.025499 46.096807 77.195426 -18.923128 4.737600 -10.531292 1.645112 -6.693678 -0.000000 -0.000000 0.000000 0.000001 0.000001 -0.000000 -45.513379 7.534424 -24.974964 83.650543 3.451633 -7.921338 -42.820239 -7.169796 25.194845 -0.000000 -0.000002 -0.000000 0.000000 -0.000001 -0.000001 11.567817 2.987062 -0.184554 7.220622 6.093216 -0.799168 -4.695201 6.126904 0.476048 -0.040604 22.524827 2.165621 0.338344 11.269443 -10.613077 0.000001 0.000000 0.000001 0.000001 0.000000 0.000001 0.000001 0.000000 0.000001 0.000001 0.000000 0.000001 0.000001 0.000000 0.000002 0.000001 0.000000 0.000001 0.000001 0.000000 0.000002 0.000001 0.000000 0.000001 0.000001 0.000000 0.000001 -1.295622 1.473315 1.695075 -74.523409 5.458153 -6.521176 115.644105 -46.114162 107.177512 32.013015 -10.147889 33.513436 21.113028 -10.780593 7.908415 -1.150224 11.255266 -8.400804 0.000000 -0.000001 0.000003 -1.232800 -5.771934 -0.192378 0.133874 -0.197669 -4.602157 0.000001 -0.000001 -0.000002 1.884714 4.663357 -4.597411 0.476750 -1.009792 -12.986453 0.000001 0.000003 -0.000001 3.024654 7.938953 -14.103506 -0.708029 -0.566244 -18.895722 -0.000004 -0.000001 0.000002 7.959331 15.294906 -16.105726 -0.806481 -0.064919 -12.959384 0.000001 -0.000003 0.000002 0.000001 0.000002 0.000000 -0.880704 27.619207 -1.847648 -70.164238 58.485318 76.524750 -8.785584 38.816764 7.744098 3.019368 10.478896 -21.963935 55.149539 18.649505 -29.698267 -0.442591 -14.180542 7.313095 0.000001 -0.000001 -0.000001 5.673388 7.584984 36.844137 1.050464 3.824534 68.900271 -0.000001 0.000002 0.000001 -0.125667 1.886096 45.000695 -1.169025 3.204642 68.417670 0.000002 -0.000002 -0.000001 -5.311986 1.216696 58.508821 -0.745184 1.667573 48.011261 -0.000000 -0.000004 0.000004 -7.756794 -9.376493 47.263929 -0.526075 1.541553 45.600556 -0.000004 0.000002 0.000001 0.000003 -0.000002 -0.000003 -0.000001 -0.000003 -0.000000 -0.000001 0.000001 -0.000002 -0.000001 -0.000003 -0.000000 -0.000001 -0.000003 -0.000000 -0.000001 -0.000003 -0.000000 -0.000001 0.000001 -0.000002 -0.000001 -0.000003 -0.000000 -0.000001 -0.000003 -0.000000 -0.000001 -0.000003 -0.000000 -0.000001 0.000001 -0.000002 0.000000 0.000002 -0.000000 0.000000 0.000002 -0.000000 0.000000 0.000002 -0.000000 
0.527233 51.352310 0.219308 11.534306 -49.444580 11.073689 -0.000000 -0.000001 -0.000000 -78.266537 15.032707 46.142204 77.190782 -18.935197 4.742027 -10.539789 1.639027 -6.700925 0.000000 -0.000000 -0.000000 -0.000002 0.000001 0.000000 -45.420191 7.518575 -24.962108 83.651574 3.453918 -7.922242 -42.855954 -7.155734 25.180411 -0.000000 0.000003 0.000000 0.000001 -0.000001 -0.000002 11.585258 2.995226 -0.191166 7.253518 6.083686 -0.813504 -4.661682 6.119675 0.462941 0.059033 22.561546 2.052527 0.445286 11.232709 -10.433552 0.000002 0.000000 0.000001 0.000002 0.000000 0.000001 0.000002 0.000000 0.000001 0.000002 0.000000 0.000000 0.000002 0.000000 0.000001 0.000002 0.000000 0.000000 0.000002 0.000000 0.000001 0.000002 0.000000 0.000001 0.000002 0.000000 0.000001 -1.289224 1.517264 1.669960 -74.563392 4.441774 -6.456185 115.063279 -46.437848 106.277825 31.888736 -10.294137 33.419289 21.113023 -10.780596 7.908420 -1.148684 11.256344 -8.400760 0.000002 0.000002 0.000002 -1.232161 -5.766260 -0.213939 0.133820 -0.197893 -4.607280 -0.000000 0.000000 -0.000002 1.885212 4.664622 -4.633299 0.476665 -1.009983 -12.990953 -0.000000 0.000000 -0.000001 3.025558 7.938871 -14.144609 -0.708091 -0.566483 -18.901959 -0.000001 0.000001 -0.000002 7.967557 15.286646 -16.117088 -0.806590 -0.065988 -12.984712 -0.000001 0.000000 0.000001 -0.000002 0.000000 -0.000001 -0.870337 27.605982 -1.876162 -70.152900 58.389539 76.505803 -8.801269 38.919620 7.766354 2.668119 10.336195 -21.966351 55.149536 18.649504 -29.698267 -0.442589 -14.180540 7.313094 0.000000 -0.000001 -0.000000 5.673391 7.584985 36.844144 1.050462 3.824537 68.900271 0.000001 0.000002 -0.000001 -0.125670 1.886096 45.000691 -1.169024 3.204644 68.417670 0.000001 -0.000001 -0.000001 -5.311988 1.216694 58.508821 -0.745182 1.667571 48.011261 -0.000003 -0.000001 0.000002 -7.756795 -9.376496 47.263926 -0.526074 1.541552 45.600556 -0.000004 0.000002 0.000001 0.000004 -0.000000 -0.000001 0.000001 -0.000001 -0.000000 0.000001 -0.000001 -0.000001 0.000001 -0.000001 -0.000000 0.000001 -0.000001 -0.000000 0.000001 -0.000001 -0.000000 0.000001 -0.000001 -0.000000 0.000001 -0.000001 -0.000000 0.000001 -0.000001 -0.000000 0.000001 -0.000001 -0.000000 0.000001 -0.000001 -0.000000 -0.000000 -0.000001 -0.000000 -0.000000 -0.000001 -0.000000 -0.000000 -0.000001 -0.000000 
0.501622 51.380173 0.223622 11.321407 -49.563934 10.898807 -0.000000 0.000001 0.000000 -78.059527 15.048795 46.242423 77.149002 -18.948715 4.736226 -10.567766 1.648372 -6.735190 0.000000 -0.000000 0.000000 0.000001 -0.000000 0.000000 -45.238781 7.503351 -24.910514 83.592083 3.470182 -7.926219 -42.868432 -7.109666 25.152732 -0.000000 -0.000002 -0.000000 0.000000 -0.000004 -0.000002 11.610180 3.010464 -0.207961 7.255818 6.070060 -0.848179 -4.657711 6.111871 0.426637 0.514407 22.668406 1.809445 0.382868 11.221307 -10.134969 0.000001 0.000000 0.000000 0.000001 0.000000 0.000000 0.000001 0.000000 0.000000 0.000001 0.000000 -0.000001 0.000001 0.000000 -0.000001 0.000001 0.000000 -0.000001 0.000001 0.000000 -0.000001 0.000001 0.000000 0.000000 0.000001 0.000000 0.000000 -1.270721 1.638583 1.595175 -74.469184 2.892185 -6.222479 114.373341 -46.857761 105.176840 31.572426 -10.358083 33.161033 21.113032 -10.780597 7.908416 -1.123563 11.287378 -8.403989 0.000001 -0.000000 0.000002 -1.230417 -5.750066 -0.275999 0.133843 -0.198514 -4.622067 0.000003 0.000001 -0.000002 1.886678 4.668153 -4.736619 0.476530 -1.010532 -13.003954 0.000001 -0.000001 -0.000001 3.028115 7.938597 -14.262982 -0.708248 -0.567151 -18.919918 0.000002 0.000000 -0.000000 7.991215 15.262859 -16.149834 -0.806958 -0.069109 -13.057425 0.000001 -0.000005 0.000002 0.000000 0.000003 0.000002 -0.852113 27.577212 -1.930867 -69.966204 58.187133 76.435062 -8.843742 39.186909 7.825279 2.173139 10.157576 -21.963300 55.149533 18.649504 -29.698264 -0.442589 -14.180543 7.313093 -0.000000 0.000000 -0.000000 5.673389 7.584983 36.844141 1.050463 3.824535 68.900264 -0.000003 -0.000001 0.000004 -0.125674 1.886095 45.000695 -1.169025 3.204645 68.417670 -0.000002 0.000000 0.000001 -5.311988 1.216699 58.508821 -0.745185 1.667573 48.011264 -0.000001 -0.000003 0.000001 -7.756791 -9.376497 47.263926 -0.526069 1.541553 45.600559 -0.000001 0.000000 -0.000001 0.000001 0.000001 -0.000001 0.000002 -0.000001 -0.000000 0.000002 -0.000001 -0.000000 0.000002 -0.000001 -0.000000 0.000002 -0.000001 -0.000000 0.000002 -0.000001 -0.000000 0.000002 -0.000001 -0.000000 0.000002 -0.000001 -0.000000 0.000002 -0.000001 -0.000000 0.000002 -0.000001 -0.000000 0.000002 -0.000001 -0.000000 -0.000000 0.000001 0.000000 -0.000000 0.000001 0.000000 -0.000000 0.000001 0.000000 
0.477596 51.440475 0.236781 11.183740 -49.733729 10.793293 0.000000 0.000000 -0.000000 -77.808128 15.102137 46.343554 77.027178 -18.944650 4.706950 -10.605182 1.687687 -6.791324 0.000000 0.000002 0.000000 -0.000002 0.000001 -0.000000 -45.057518 7.525504 -24.820341 83.431375 3.480825 -7.931349 -42.819074 -7.072187 25.133699 -0.000000 -0.000002 0.000000 -0.000002 -0.000003 -0.000002 11.601582 3.021665 -0.230575 7.218065 6.072144 -0.890335 -4.695243 6.122132 0.386411 1.225875 22.797669 1.514206 0.173866 11.218010 -9.860477 -0.000000 0.000000 0.000001 -0.000000 0.000000 0.000001 -0.000000 0.000000 0.000001 -0.000000 0.000000 -0.000000 0.000001 -0.000000 -0.000001 -0.000000 0.000000 -0.000000 0.000001 -0.000000 -0.000001 -0.000000 0.000000 0.000001 -0.000000 0.000000 0.000001 -1.240731 1.821327 1.471568 -74.310143 1.377218 -6.094600 113.769573 -47.213881 104.232710 31.294759 -10.468661 32.834604 21.113032 -10.780602 7.908416 -1.096243 11.321379 -8.407539 0.000001 -0.000003 0.000003 -1.227577 -5.724331 -0.374660 0.133714 -0.199516 -4.645543 0.000004 -0.000001 -0.000000 1.888951 4.673757 -4.900828 0.476400 -1.011324 -13.024600 -0.000003 0.000005 -0.000002 3.032136 7.938183 -14.451063 -0.708548 -0.568300 -18.948488 0.000000 -0.000001 0.000002 8.028817 15.225076 -16.201567 -0.807506 -0.074017 -13.173051 -0.000002 0.000000 0.000001 -0.000001 -0.000002 -0.000002 -0.845958 27.539613 -1.964248 -69.470947 57.968314 76.226885 -8.914958 39.626370 7.925530 1.690199 9.957768 -22.007940 55.149536 18.649504 -29.698267 -0.442590 -14.180542 7.313099 0.000002 -0.000001 0.000001 5.673390 7.584984 36.844137 1.050463 3.824535 68.900264 -0.000003 0.000000 0.000007 -0.125675 1.886095 45.000695 -1.169028 3.204643 68.417670 0.000000 -0.000003 0.000001 -5.311990 1.216696 58.508821 -0.745184 1.667574 48.011264 0.000001 0.000001 -0.000002 -7.756797 -9.376498 47.263919 -0.526072 1.541554 45.600556 -0.000001 0.000001 0.000001 0.000000 -0.000001 -0.000001 -0.000001 0.000003 -0.000001 0.000001 0.000001 -0.000001 -0.000001 0.000003 -0.000001 -0.000001 0.000003 -0.000001 -0.000001 0.000003 -0.000001 0.000001 0.000001 -0.000001 -0.000001 0.000003 -0.000001 -0.000001 0.000003 -0.000001 -0.000001 0.000003 -0.000001 0.000001 0.000001 -0.000001 0.000000 0.000000 -0.000000 0.000000 0.000000 -0.000000 0.000000 0.000000 -0.000000 
